<?xml version="1.0" encoding="UTF-8"?>
<svg width="512" height="512" viewBox="0 0 512 512" fill="none" xmlns="http://www.w3.org/2000/svg">
  <rect width="512" height="512" rx="100" fill="url(#paint0_linear)"/>
  <path d="M346.104 127.104C346.104 141.104 339.104 152.771 325.104 162.104C311.771 171.438 292.104 176.104 266.104 176.104H206.104V336.104C206.104 352.104 208.104 363.438 212.104 370.104C216.104 376.104 223.438 379.104 234.104 379.104C238.104 379.104 241.438 378.771 244.104 378.104C247.438 377.438 250.104 376.771 252.104 376.104V396.104C246.104 397.438 240.104 398.438 234.104 399.104C228.104 399.771 221.771 400.104 215.104 400.104C195.104 400.104 180.771 394.771 172.104 384.104C163.438 373.438 159.104 356.771 159.104 334.104V176.104H119.104V156.104H159.104V106.104L206.104 92.104V156.104H266.104C282.771 156.104 294.771 153.438 302.104 148.104C310.104 142.771 314.104 134.771 314.104 124.104C314.104 118.771 313.104 114.104 311.104 110.104C309.104 106.104 306.104 102.771 302.104 100.104L321.104 82.104C329.104 87.438 335.104 94.104 339.104 102.104C343.771 110.104 346.104 118.438 346.104 127.104Z" fill="white"/>
  <defs>
    <linearGradient id="paint0_linear" x1="0" y1="0" x2="512" y2="512" gradientUnits="userSpaceOnUse">
      <stop stop-color="#4A6CF7"/>
      <stop offset="1" stop-color="#6E8EFF"/>
    </linearGradient>
  </defs>
</svg>
