<?xml version="1.0" encoding="UTF-8"?>
<svg width="200" height="60" viewBox="0 0 200 60" fill="none" xmlns="http://www.w3.org/2000/svg">
  <path d="M30 10C30 15.5228 25.5228 20 20 20C14.4772 20 10 15.5228 10 10C10 4.47715 14.4772 0 20 0C25.5228 0 30 4.47715 30 10Z" fill="#F72585"/>
  <path d="M50 30C50 35.5228 45.5228 40 40 40C34.4772 40 30 35.5228 30 30C30 24.4772 34.4772 20 40 20C45.5228 20 50 24.4772 50 30Z" fill="#4A6CF7"/>
  <path d="M30 50C30 55.5228 25.5228 60 20 60C14.4772 60 10 55.5228 10 50C10 44.4772 14.4772 40 20 40C25.5228 40 30 44.4772 30 50Z" fill="#00B894"/>
  <path d="M20 20V40" stroke="#212529" stroke-width="3"/>
  <path d="M40 40L20 40" stroke="#212529" stroke-width="3"/>
  <path d="M60 10H70L80 50H90" stroke="white" stroke-width="0"/>
  <path d="M68.864 22.4V42H64.784V22.4H68.864ZM80.7203 22.4V25.76H72.0643V22.4H80.7203ZM81.5603 32.4V35.68H72.0643V32.4H81.5603ZM80.7203 42V38.64H72.0643V42H80.7203ZM94.0909 22.4C95.6909 22.4 97.0509 22.68 98.1709 23.24C99.2909 23.8 100.131 24.6 100.691 25.64C101.251 26.68 101.531 27.92 101.531 29.36C101.531 30.8 101.251 32.04 100.691 33.08C100.131 34.12 99.2909 34.92 98.1709 35.48C97.0509 36.04 95.6909 36.32 94.0909 36.32H91.2909V42H87.2109V22.4H94.0909ZM93.8509 32.96C95.0509 32.96 95.9309 32.7 96.4909 32.18C97.0509 31.66 97.3309 30.68 97.3309 29.36C97.3309 28.04 97.0509 27.08 96.4909 26.48C95.9309 25.88 95.0509 25.6 93.8509 25.6H91.2909V32.96H93.8509ZM104.888 22.4H108.968V42H104.888V22.4ZM123.424 22.4C125.024 22.4 126.384 22.68 127.504 23.24C128.624 23.8 129.464 24.6 130.024 25.64C130.584 26.68 130.864 27.92 130.864 29.36C130.864 30.8 130.584 32.04 130.024 33.08C129.464 34.12 128.624 34.92 127.504 35.48C126.384 36.04 125.024 36.32 123.424 36.32H120.624V42H116.544V22.4H123.424ZM123.184 32.96C124.384 32.96 125.264 32.7 125.824 32.18C126.384 31.66 126.664 30.68 126.664 29.36C126.664 28.04 126.384 27.08 125.824 26.48C125.264 25.88 124.384 25.6 123.184 25.6H120.624V32.96H123.184ZM134.222 22.4H138.302V42H134.222V22.4ZM152.758 42.32C150.838 42.32 149.138 41.94 147.658 41.18C146.178 40.42 145.018 39.34 144.178 37.94C143.338 36.54 142.918 34.92 142.918 33.08V22.4H147.078V32.88C147.078 34.56 147.498 35.84 148.338 36.72C149.178 37.6 150.358 38.04 151.878 38.04C153.398 38.04 154.578 37.6 155.418 36.72C156.258 35.84 156.678 34.56 156.678 32.88V22.4H160.758V33.08C160.758 34.92 160.338 36.54 159.498 37.94C158.658 39.34 157.498 40.42 156.018 41.18C154.538 41.94 152.798 42.32 152.758 42.32ZM174.769 42.32C172.929 42.32 171.269 41.92 169.789 41.12C168.309 40.32 167.149 39.2 166.309 37.76C165.469 36.32 165.049 34.68 165.049 32.84C165.049 31 165.469 29.36 166.309 27.92C167.149 26.48 168.309 25.36 169.789 24.56C171.269 23.76 172.929 23.36 174.769 23.36C176.609 23.36 178.269 23.76 179.749 24.56C181.229 25.36 182.389 26.48 183.229 27.92C184.069 29.36 184.489 31 184.489 32.84C184.489 34.68 184.069 36.32 183.229 37.76C182.389 39.2 181.229 40.32 179.749 41.12C178.269 41.92 176.609 42.32 174.769 42.32ZM174.769 38.52C176.209 38.52 177.349 38.02 178.189 37.02C179.029 36.02 179.449 34.64 179.449 32.88C179.449 31.12 179.029 29.74 178.189 28.74C177.349 27.74 176.209 27.24 174.769 27.24C173.329 27.24 172.189 27.74 171.349 28.74C170.509 29.74 170.089 31.12 170.089 32.88C170.089 34.64 170.509 36.02 171.349 37.02C172.189 38.02 173.329 38.52 174.769 38.52ZM196.246 42.32C194.566 42.32 193.046 41.92 191.686 41.12C190.326 40.32 189.246 39.2 188.446 37.76C187.646 36.32 187.246 34.68 187.246 32.84C187.246 31 187.646 29.36 188.446 27.92C189.246 26.48 190.326 25.36 191.686 24.56C193.046 23.76 194.566 23.36 196.246 23.36C197.926 23.36 199.366 23.72 200.566 24.44C201.766 25.16 202.646 26.16 203.206 27.44L199.846 29.2C199.046 27.76 197.846 27.04 196.246 27.04C194.886 27.04 193.766 27.52 192.886 28.48C192.006 29.44 191.566 30.92 191.566 32.92C191.566 34.92 192.006 36.4 192.886 37.36C193.766 38.32 194.886 38.8 196.246 38.8C197.846 38.8 199.046 38.08 199.846 36.64L203.206 38.4C202.646 39.68 201.766 40.68 200.566 41.4C199.366 42.02 197.926 42.32 196.246 42.32Z" fill="white"/>
</svg>
